<svg aria-hidden="true" style="position: absolute; width: 0; height: 0; overflow: hidden;" version="1.1" xmlns="http://www.w3.org/2000/svg" xmlns:xlink="http://www.w3.org/1999/xlink">
<defs>
<symbol id="icon-Location" viewBox="0 0 30 32">
<path fill="#565656" style="fill: var(--color1, #565656)" d="M9.242 1.87l-7.313 3.657c-0.953 0.476-1.554 1.45-1.554 2.515v18.727c-0 0.48 0.122 0.951 0.356 1.37s0.57 0.771 0.978 1.023c0.408 0.252 0.873 0.396 1.353 0.417s0.956-0.080 1.384-0.294l5.802-2.903c0.078-0.039 0.165-0.060 0.252-0.060s0.174 0.020 0.252 0.060l7.491 3.746c0.39 0.195 0.821 0.296 1.257 0.296s0.867-0.101 1.257-0.296l7.312-3.656c0.954-0.475 1.556-1.45 1.556-2.515v-18.728c0-0.479-0.123-0.951-0.356-1.369s-0.57-0.771-0.978-1.023c-0.408-0.252-0.873-0.396-1.352-0.417s-0.955 0.079-1.384 0.294l-5.804 2.902c-0.159 0.078-0.345 0.078-0.504 0l-7.489-3.747c-0.391-0.196-0.822-0.297-1.258-0.297s-0.868 0.102-1.258 0.297zM10.5 7c0.298 0 0.585 0.119 0.796 0.33s0.329 0.497 0.329 0.796v12.375c0 0.298-0.119 0.585-0.329 0.796s-0.497 0.329-0.796 0.329c-0.298 0-0.585-0.118-0.796-0.329s-0.329-0.497-0.329-0.796v-12.375c0-0.298 0.119-0.585 0.329-0.795s0.497-0.33 0.796-0.33zM20.625 11.5c0-0.298-0.119-0.585-0.33-0.796s-0.497-0.329-0.795-0.329-0.585 0.119-0.796 0.329c-0.211 0.211-0.329 0.497-0.329 0.796v12.375c0 0.298 0.119 0.585 0.329 0.796s0.497 0.329 0.796 0.329c0.298 0 0.585-0.118 0.795-0.329s0.33-0.497 0.33-0.796v-12.375z"></path>
</symbol>
<symbol id="Check-in" viewBox="0 0 34 32">
<path fill="#565656" style="fill: var(--color1, #565656)" d="M17.889 17c0 0.265-0.105 0.52-0.293 0.707s-0.442 0.293-0.707 0.293-0.52-0.105-0.707-0.293c-0.188-0.188-0.293-0.442-0.293-0.707s0.105-0.52 0.293-0.707c0.188-0.188 0.442-0.293 0.707-0.293s0.52 0.105 0.707 0.293c0.187 0.188 0.293 0.442 0.293 0.707zM10.889 21c0.265 0 0.52-0.105 0.707-0.293s0.293-0.442 0.293-0.707-0.105-0.52-0.293-0.707c-0.188-0.188-0.442-0.293-0.707-0.293s-0.52 0.105-0.707 0.293c-0.188 0.187-0.293 0.442-0.293 0.707s0.105 0.52 0.293 0.707c0.188 0.188 0.442 0.293 0.707 0.293zM11.889 23c0 0.265-0.105 0.52-0.293 0.707s-0.442 0.293-0.707 0.293-0.52-0.105-0.707-0.293c-0.188-0.187-0.293-0.442-0.293-0.707s0.105-0.52 0.293-0.707c0.188-0.188 0.442-0.293 0.707-0.293s0.52 0.105 0.707 0.293c0.188 0.187 0.293 0.442 0.293 0.707zM13.889 21c0.265 0 0.52-0.105 0.707-0.293s0.293-0.442 0.293-0.707-0.105-0.52-0.293-0.707c-0.188-0.188-0.442-0.293-0.707-0.293s-0.52 0.105-0.707 0.293c-0.188 0.187-0.293 0.442-0.293 0.707s0.105 0.52 0.293 0.707c0.188 0.188 0.442 0.293 0.707 0.293zM14.889 23c0 0.265-0.105 0.52-0.293 0.707s-0.442 0.293-0.707 0.293-0.52-0.105-0.707-0.293c-0.188-0.187-0.293-0.442-0.293-0.707s0.105-0.52 0.293-0.707c0.188-0.188 0.442-0.293 0.707-0.293s0.52 0.105 0.707 0.293c0.188 0.187 0.293 0.442 0.293 0.707zM16.889 21c0.265 0 0.52-0.105 0.707-0.293s0.293-0.442 0.293-0.707-0.105-0.52-0.293-0.707c-0.188-0.188-0.442-0.293-0.707-0.293s-0.52 0.105-0.707 0.293c-0.188 0.187-0.293 0.442-0.293 0.707s0.105 0.52 0.293 0.707c0.188 0.188 0.442 0.293 0.707 0.293zM17.889 23c0 0.265-0.105 0.52-0.293 0.707s-0.442 0.293-0.707 0.293-0.52-0.105-0.707-0.293c-0.188-0.187-0.293-0.442-0.293-0.707s0.105-0.52 0.293-0.707c0.188-0.188 0.442-0.293 0.707-0.293s0.52 0.105 0.707 0.293c0.187 0.187 0.293 0.442 0.293 0.707zM19.889 21c0.265 0 0.52-0.105 0.707-0.293s0.293-0.442 0.293-0.707-0.105-0.52-0.293-0.707c-0.187-0.188-0.442-0.293-0.707-0.293s-0.52 0.105-0.707 0.293c-0.188 0.187-0.293 0.442-0.293 0.707s0.105 0.52 0.293 0.707c0.187 0.188 0.442 0.293 0.707 0.293zM20.889 23c0 0.265-0.105 0.52-0.293 0.707s-0.442 0.293-0.707 0.293-0.52-0.105-0.707-0.293c-0.188-0.187-0.293-0.442-0.293-0.707s0.105-0.52 0.293-0.707c0.187-0.188 0.442-0.293 0.707-0.293s0.52 0.105 0.707 0.293c0.188 0.187 0.293 0.442 0.293 0.707zM22.889 21c0.265 0 0.52-0.105 0.707-0.293s0.293-0.442 0.293-0.707-0.105-0.52-0.293-0.707c-0.187-0.188-0.442-0.293-0.707-0.293s-0.52 0.105-0.707 0.293c-0.188 0.187-0.293 0.442-0.293 0.707s0.105 0.52 0.293 0.707c0.187 0.188 0.442 0.293 0.707 0.293zM20.889 17c0 0.265-0.105 0.52-0.293 0.707s-0.442 0.293-0.707 0.293-0.52-0.105-0.707-0.293c-0.188-0.188-0.293-0.442-0.293-0.707s0.105-0.52 0.293-0.707c0.187-0.188 0.442-0.293 0.707-0.293s0.52 0.105 0.707 0.293c0.188 0.188 0.293 0.442 0.293 0.707zM22.889 18c0.265 0 0.52-0.105 0.707-0.293s0.293-0.442 0.293-0.707-0.105-0.52-0.293-0.707c-0.187-0.188-0.442-0.293-0.707-0.293s-0.52 0.105-0.707 0.293c-0.188 0.188-0.293 0.442-0.293 0.707s0.105 0.52 0.293 0.707c0.187 0.187 0.442 0.293 0.707 0.293z"></path>
<path fill="#565656" style="fill: var(--color1, #565656)" d="M9.889 3c0.265 0 0.52 0.105 0.707 0.293s0.293 0.442 0.293 0.707v2h12v-2c0-0.265 0.105-0.52 0.293-0.707s0.442-0.293 0.707-0.293 0.52 0.105 0.707 0.293c0.188 0.188 0.293 0.442 0.293 0.707v2h1c1.061 0 2.078 0.421 2.828 1.172s1.172 1.768 1.172 2.828v15c0 1.061-0.422 2.078-1.172 2.828s-1.768 1.172-2.828 1.172h-18c-1.061 0-2.078-0.422-2.828-1.172s-1.172-1.768-1.172-2.828v-15c0-1.061 0.421-2.078 1.172-2.828s1.768-1.172 2.828-1.172h1v-2c0-0.265 0.105-0.52 0.293-0.707s0.442-0.293 0.707-0.293zM27.889 15c0-0.53-0.211-1.039-0.586-1.414s-0.884-0.586-1.414-0.586h-18c-0.53 0-1.039 0.211-1.414 0.586s-0.586 0.884-0.586 1.414v10c0 0.53 0.211 1.039 0.586 1.414s0.884 0.586 1.414 0.586h18c0.53 0 1.039-0.211 1.414-0.586s0.586-0.884 0.586-1.414v-10z"></path>
</symbol>
<symbol id="Check-out" viewBox="0 0 34 32">
<path fill="#565656" style="fill: var(--color1, #565656)" d="M17.889 17c0 0.265-0.105 0.52-0.293 0.707s-0.442 0.293-0.707 0.293-0.52-0.105-0.707-0.293c-0.188-0.188-0.293-0.442-0.293-0.707s0.105-0.52 0.293-0.707c0.188-0.188 0.442-0.293 0.707-0.293s0.52 0.105 0.707 0.293c0.187 0.188 0.293 0.442 0.293 0.707zM10.889 21c0.265 0 0.52-0.105 0.707-0.293s0.293-0.442 0.293-0.707-0.105-0.52-0.293-0.707c-0.188-0.188-0.442-0.293-0.707-0.293s-0.52 0.105-0.707 0.293c-0.188 0.187-0.293 0.442-0.293 0.707s0.105 0.52 0.293 0.707c0.188 0.188 0.442 0.293 0.707 0.293zM11.889 23c0 0.265-0.105 0.52-0.293 0.707s-0.442 0.293-0.707 0.293-0.52-0.105-0.707-0.293c-0.188-0.187-0.293-0.442-0.293-0.707s0.105-0.52 0.293-0.707c0.188-0.188 0.442-0.293 0.707-0.293s0.52 0.105 0.707 0.293c0.188 0.187 0.293 0.442 0.293 0.707zM13.889 21c0.265 0 0.52-0.105 0.707-0.293s0.293-0.442 0.293-0.707-0.105-0.52-0.293-0.707c-0.188-0.188-0.442-0.293-0.707-0.293s-0.52 0.105-0.707 0.293c-0.188 0.187-0.293 0.442-0.293 0.707s0.105 0.52 0.293 0.707c0.188 0.188 0.442 0.293 0.707 0.293zM14.889 23c0 0.265-0.105 0.52-0.293 0.707s-0.442 0.293-0.707 0.293-0.52-0.105-0.707-0.293c-0.188-0.187-0.293-0.442-0.293-0.707s0.105-0.52 0.293-0.707c0.188-0.188 0.442-0.293 0.707-0.293s0.52 0.105 0.707 0.293c0.188 0.187 0.293 0.442 0.293 0.707zM16.889 21c0.265 0 0.52-0.105 0.707-0.293s0.293-0.442 0.293-0.707-0.105-0.52-0.293-0.707c-0.188-0.188-0.442-0.293-0.707-0.293s-0.52 0.105-0.707 0.293c-0.188 0.187-0.293 0.442-0.293 0.707s0.105 0.52 0.293 0.707c0.188 0.188 0.442 0.293 0.707 0.293zM17.889 23c0 0.265-0.105 0.52-0.293 0.707s-0.442 0.293-0.707 0.293-0.52-0.105-0.707-0.293c-0.188-0.187-0.293-0.442-0.293-0.707s0.105-0.52 0.293-0.707c0.188-0.188 0.442-0.293 0.707-0.293s0.52 0.105 0.707 0.293c0.187 0.187 0.293 0.442 0.293 0.707zM19.889 21c0.265 0 0.52-0.105 0.707-0.293s0.293-0.442 0.293-0.707-0.105-0.52-0.293-0.707c-0.187-0.188-0.442-0.293-0.707-0.293s-0.52 0.105-0.707 0.293c-0.188 0.187-0.293 0.442-0.293 0.707s0.105 0.52 0.293 0.707c0.187 0.188 0.442 0.293 0.707 0.293zM20.889 23c0 0.265-0.105 0.52-0.293 0.707s-0.442 0.293-0.707 0.293-0.52-0.105-0.707-0.293c-0.188-0.187-0.293-0.442-0.293-0.707s0.105-0.52 0.293-0.707c0.187-0.188 0.442-0.293 0.707-0.293s0.52 0.105 0.707 0.293c0.188 0.187 0.293 0.442 0.293 0.707zM22.889 21c0.265 0 0.52-0.105 0.707-0.293s0.293-0.442 0.293-0.707-0.105-0.52-0.293-0.707c-0.187-0.188-0.442-0.293-0.707-0.293s-0.52 0.105-0.707 0.293c-0.188 0.187-0.293 0.442-0.293 0.707s0.105 0.52 0.293 0.707c0.187 0.188 0.442 0.293 0.707 0.293zM20.889 17c0 0.265-0.105 0.52-0.293 0.707s-0.442 0.293-0.707 0.293-0.52-0.105-0.707-0.293c-0.188-0.188-0.293-0.442-0.293-0.707s0.105-0.52 0.293-0.707c0.187-0.188 0.442-0.293 0.707-0.293s0.52 0.105 0.707 0.293c0.188 0.188 0.293 0.442 0.293 0.707zM22.889 18c0.265 0 0.52-0.105 0.707-0.293s0.293-0.442 0.293-0.707-0.105-0.52-0.293-0.707c-0.187-0.188-0.442-0.293-0.707-0.293s-0.52 0.105-0.707 0.293c-0.188 0.188-0.293 0.442-0.293 0.707s0.105 0.52 0.293 0.707c0.187 0.187 0.442 0.293 0.707 0.293z"></path>
<path fill="#565656" style="fill: var(--color1, #565656)" d="M9.889 3c0.265 0 0.52 0.105 0.707 0.293s0.293 0.442 0.293 0.707v2h12v-2c0-0.265 0.105-0.52 0.293-0.707s0.442-0.293 0.707-0.293 0.52 0.105 0.707 0.293c0.188 0.188 0.293 0.442 0.293 0.707v2h1c1.061 0 2.078 0.421 2.828 1.172s1.172 1.768 1.172 2.828v15c0 1.061-0.422 2.078-1.172 2.828s-1.768 1.172-2.828 1.172h-18c-1.061 0-2.078-0.422-2.828-1.172s-1.172-1.768-1.172-2.828v-15c0-1.061 0.421-2.078 1.172-2.828s1.768-1.172 2.828-1.172h1v-2c0-0.265 0.105-0.52 0.293-0.707s0.442-0.293 0.707-0.293zM27.889 15c0-0.53-0.211-1.039-0.586-1.414s-0.884-0.586-1.414-0.586h-18c-0.53 0-1.039 0.211-1.414 0.586s-0.586 0.884-0.586 1.414v10c0 0.53 0.211 1.039 0.586 1.414s0.884 0.586 1.414 0.586h18c0.53 0 1.039-0.211 1.414-0.586s0.586-0.884 0.586-1.414v-10z"></path>
</symbol>
<symbol id="Travellers" viewBox="0 0 34 32">
<path fill="#565656" style="fill: var(--color1, #565656)" d="M6.889 8.5c0-1.459 0.579-2.858 1.611-3.889s2.43-1.611 3.889-1.611c1.459 0 2.858 0.579 3.889 1.611s1.611 2.43 1.611 3.889c0 1.459-0.579 2.858-1.611 3.889s-2.43 1.611-3.889 1.611c-1.459 0-2.858-0.579-3.889-1.611s-1.611-2.43-1.611-3.889zM19.889 11.5c0-0.591 0.116-1.176 0.343-1.722s0.558-1.042 0.975-1.46c0.418-0.418 0.914-0.749 1.46-0.976s1.131-0.343 1.722-0.343c0.591 0 1.176 0.116 1.722 0.343s1.042 0.558 1.46 0.976c0.418 0.418 0.749 0.914 0.975 1.46s0.343 1.131 0.343 1.722c0 1.193-0.474 2.338-1.318 3.182s-1.988 1.318-3.182 1.318c-1.194 0-2.338-0.474-3.182-1.318s-1.318-1.989-1.318-3.182zM2.889 25.5c0-2.52 1.001-4.936 2.783-6.718s4.198-2.782 6.718-2.782 4.936 1.001 6.718 2.782c1.782 1.782 2.782 4.198 2.782 6.718v0.004l-0.001 0.159c-0.003 0.17-0.049 0.336-0.133 0.483s-0.205 0.27-0.351 0.358c-2.721 1.639-5.838 2.502-9.015 2.497-3.296 0-6.381-0.912-9.013-2.497-0.146-0.087-0.266-0.21-0.351-0.357s-0.131-0.313-0.134-0.483l-0.001-0.163zM23.889 25.504l-0.001 0.192c-0.007 0.444-0.114 0.882-0.311 1.28 2.328 0.144 4.653-0.321 6.747-1.347 0.162-0.079 0.3-0.201 0.398-0.351s0.154-0.326 0.162-0.506c0.047-1.118-0.195-2.23-0.704-3.227s-1.266-1.846-2.199-2.464c-0.933-0.619-2.010-0.985-3.126-1.065s-2.235 0.13-3.246 0.609c1.484 1.985 2.284 4.398 2.28 6.876v0.004h0.001z"></path>
</symbol>
</defs>
</svg>
