<svg xmlns="http://www.w3.org/2000/svg" aria-hidden="true" style="position:absolute;width:0;height:0;overflow:hidden">
  <defs>
<symbol id="Ellipse-81" viewBox="0 0 32 32">
<path fill="#f2faf9" style="fill: var(--color1, #f2faf9)" stroke-linejoin="miter" stroke-linecap="butt" stroke-miterlimit="4" stroke-width="0.6667" stroke="#000" d="M31.667 16c0 8.652-7.014 15.667-15.667 15.667s-15.667-7.014-15.667-15.667c0-8.652 7.014-15.667 15.667-15.667s15.667 7.014 15.667 15.667z"></path>
</symbol>
<symbol id="Vector" viewBox="0 0 32 32">
<path d="M26.696 27.355c1.55-1.457 2.786-3.216 3.629-5.169s1.277-4.058 1.275-6.186c0-8.616-6.984-15.6-15.6-15.6s-15.6 6.984-15.6 15.6c-0.002 2.128 0.431 4.233 1.275 6.186s2.079 3.712 3.629 5.169c2.891 2.731 6.719 4.25 10.696 4.245 3.977 0.005 7.805-1.514 10.696-4.245zM6.632 25.299c1.123-1.405 2.549-2.54 4.171-3.319s3.398-1.182 5.197-1.181c1.799-0.002 3.576 0.402 5.197 1.181s3.047 1.913 4.171 3.319c-1.226 1.238-2.685 2.22-4.293 2.89s-3.333 1.013-5.075 1.011c-1.742 0.002-3.467-0.341-5.075-1.011s-3.067-1.652-4.293-2.89zM22 11.2c0 1.591-0.632 3.117-1.757 4.243s-2.651 1.757-4.243 1.757c-1.591 0-3.117-0.632-4.243-1.757s-1.757-2.651-1.757-4.243c0-1.591 0.632-3.117 1.757-4.243s2.651-1.757 4.243-1.757c1.591 0 3.117 0.632 4.243 1.757s1.757 2.651 1.757 4.243z"></path>
</symbol>
<symbol id="icon-arrow-right-circle" viewBox="0 0 32 32">
  <path d="M12 22C17.5228 22 22 17.5228 22 12C22 6.47715 17.5228 2 12 2C6.47715 2 2 6.47715 2 12C2 17.5228 6.47715 22 12 22Z" stroke="#73572E" stroke-width="2" stroke-linecap="round" stroke-linejoin="round" />
  <path d="M12 16L16 12L12 8" stroke="#73572E" stroke-width="2" stroke-linecap="round" stroke-linejoin="round" />
  <path d="M8 12H16" stroke="#73572E" stroke-width="2" stroke-linecap="round" stroke-linejoin="round" />
  </symbol>
  </defs>
</svg>
